<?xml version="1.0" ?><svg id="Layer_1" style="enable-background:new 0 0 60 60;" version="1.1" viewBox="0 0 60 60" xml:space="preserve" xmlns="http://www.w3.org/2000/svg" xmlns:xlink="http://www.w3.org/1999/xlink"><path d="M30,5C16.21,5,5,16.21,5,30s11.21,25,25,25s25-11.21,25-25S43.79,5,30,5z M30,53C17.32,53,7,42.68,7,30S17.32,7,30,7  s23,10.32,23,23S42.68,53,30,53z"/><path d="M30,10C30,10,30,10,30,10C30,10,30,10,30,10c-8.84,0-16.34,5.77-18.98,13.73c-0.01,0.03-0.03,0.06-0.04,0.09  c-0.01,0.02-0.01,0.04-0.01,0.06C10.34,25.81,10,27.86,10,30c0,6.56,3.18,12.37,8.07,16.02c0.05,0.06,0.1,0.12,0.17,0.16  c0.05,0.04,0.11,0.06,0.17,0.09C21.69,48.61,25.68,50,30,50c4.33,0,8.33-1.4,11.6-3.74c0.05-0.02,0.1-0.04,0.15-0.08  c0.06-0.05,0.12-0.1,0.17-0.16C46.81,42.37,50,36.56,50,30c0-0.41-0.01-0.81-0.04-1.22c-0.03-0.55-0.48-0.98-1.06-0.94  c-0.55,0.03-0.97,0.51-0.94,1.06C47.99,29.27,48,29.63,48,30c0,5.38-2.38,10.2-6.14,13.5l-1.75-10.22l8.66-8.44  c0.27-0.27,0.37-0.66,0.25-1.03c-0.12-0.36-0.43-0.63-0.81-0.68L36.25,21.4l-4.6-9.32c5.51,0.5,10.49,3.5,13.52,8.24  c0.3,0.47,0.92,0.6,1.38,0.3c0.46-0.3,0.6-0.92,0.3-1.38C43.15,13.46,36.85,10,30,10z M28.35,12.08l-4.6,9.32l-10.28,1.49  C16.02,16.98,21.66,12.7,28.35,12.08z M12,30c0-1.36,0.17-2.69,0.45-3.96l7.44,7.25L18.14,43.5C14.38,40.2,12,35.38,12,30z M30,48  c-3.35,0-6.49-0.94-9.18-2.54L30,40.63l9.18,4.83C36.49,47.06,33.35,48,30,48z M35.44,23.3l10.48,1.52l-7.58,7.39  c-0.24,0.23-0.34,0.56-0.29,0.89l1.79,10.44l-9.37-4.93c-0.29-0.15-0.64-0.15-0.93,0l-9.38,4.93l1.79-10.44  c0.06-0.32-0.05-0.66-0.29-0.89l-7.58-7.39l10.48-1.52c0.33-0.05,0.61-0.25,0.75-0.55l4.69-9.5l4.69,9.5  C34.83,23.05,35.11,23.26,35.44,23.3z"/></svg>