<?xml version="1.0" ?><svg data-name="레이어 1" id="레이어_1" viewBox="0 0 40 40" xmlns="http://www.w3.org/2000/svg"><path d="M36.34,23.71H21.55a1.66,1.66,0,0,0-1.66,1.66V36.28l-16.06,0V29.54c0-3.42,2.42-6.26,5.45-6.46H23.77a.92.92,0,1,0,0-1.83H9.22A8.08,8.08,0,0,0,2,29.54v8.61l18.8,0a1.3,1.3,0,0,0,.21,0,1.46,1.46,0,0,0,.54.08H36.34A1.66,1.66,0,0,0,38,36.49V25.37A1.66,1.66,0,0,0,36.34,23.71Zm-5.78,1.83V28H27.33V25.54Zm5.61,10.78H21.87l-.15-.19V25.54h3.77v2.71a1.58,1.58,0,0,0,1.58,1.58h3.74a1.58,1.58,0,0,0,1.58-1.58V25.54h3.78Z"/><path d="M18.58,20.19A9.17,9.17,0,1,0,9.4,11,9.18,9.18,0,0,0,18.58,20.19Zm0-16.51A7.34,7.34,0,1,1,11.24,11,7.34,7.34,0,0,1,18.58,3.68Z"/></svg>